<svg width="24" height="24" viewBox="0 0 24 24" fill="none" xmlns="http://www.w3.org/2000/svg">
<rect x="5" y="7.75427" width="13.8461" height="13.8461" rx="2" stroke="#222222" stroke-width="2"/>
<mask id="path-2-inside-1_15_12" fill="white">
<path d="M5.58484 8.33887C5.58484 4.83839 8.42231 2.00025 11.9227 2C15.4234 2 18.2616 4.83824 18.2616 8.33887L5.58484 8.33887Z"/>
</mask>
<path d="M5.58484 8.33887L3.58484 8.33886L3.58484 10.3389L5.58484 10.3389L5.58484 8.33887ZM11.9227 2L11.9227 -5.54161e-07L11.9226 -5.54174e-07L11.9227 2ZM18.2616 8.33887L18.2616 10.3389L20.2616 10.3389L20.2616 8.33887L18.2616 8.33887ZM5.58484 8.33887L7.58484 8.33887C7.58484 5.9427 9.52717 4.00017 11.9229 4L11.9227 2L11.9226 -5.54174e-07C7.31745 0.000328061 3.58484 3.73408 3.58484 8.33886L5.58484 8.33887ZM11.9227 2L11.9227 4C14.3188 4 16.2616 5.94281 16.2616 8.33887L18.2616 8.33887L20.2616 8.33887C20.2616 3.73367 16.5279 -1.51562e-07 11.9227 -5.54161e-07L11.9227 2ZM18.2616 8.33887L18.2616 6.33887L5.58484 6.33887L5.58484 8.33887L5.58484 10.3389L18.2616 10.3389L18.2616 8.33887Z" fill="#222222" mask="url(#path-2-inside-1_15_12)"/>
</svg>
